<svg viewBox="0 0 673 739" fill="none" xmlns="http://www.w3.org/2000/svg">
<g clip-path="url(#clip0)">
<g id="Spaceship">
<path id="Vector" d="M467 149.804C420.38 142.364 367.29 138.394 312 138.394C261.4 138.394 212.65 141.714 169.02 147.974C169.03 147.304 169.04 146.634 169.07 145.964C170.226 107.074 186.549 70.1783 214.55 43.1639C242.55 16.1495 280.007 1.1592 318.914 1.39689C357.821 1.63458 395.091 17.0814 422.759 44.4359C450.428 71.7904 466.299 108.882 466.98 147.784C466.99 148.464 467 149.134 467 149.804Z" fill="#6C63FF"/>
<path id="Vector_2" d="M532.18 161.624C510.72 155.806 488.953 151.186 466.98 147.784C430.966 142.203 394.658 138.714 358.24 137.334C343.07 136.714 327.62 136.394 312 136.394C299.62 136.394 287.34 136.594 275.23 136.994C239.706 138.044 204.266 141.038 169.07 145.964C143.016 149.552 117.214 154.782 91.8199 161.624C32.6099 177.994 3.05176e-05 199.934 3.05176e-05 223.394C3.05176e-05 246.854 32.6099 268.794 91.8199 285.164C133.46 296.684 184.8 304.534 240.74 308.134C263.83 309.634 287.7 310.394 312 310.394C336.38 310.394 360.33 309.624 383.49 308.124C434.4 304.834 481.5 298.024 520.92 288.124C521.13 288.064 521.33 288.014 521.54 287.964C524.2 287.304 526.82 286.614 529.41 285.924C530.34 285.664 531.26 285.414 532.18 285.164C532.232 285.143 532.285 285.126 532.34 285.114C533.22 284.874 534.09 284.624 534.96 284.384C536.7 283.884 538.42 283.394 540.11 282.884C540.19 282.864 540.26 282.844 540.33 282.824C541.8 282.384 543.24 281.944 544.67 281.504C545.84 281.134 547 280.774 548.15 280.404C548.99 280.134 549.82 279.864 550.64 279.594C551.24 279.394 551.83 279.204 552.41 279.004C553.2 278.744 553.99 278.474 554.77 278.204C555.1 278.094 555.43 277.984 555.75 277.864C556.5 277.614 557.23 277.354 557.96 277.094C558.75 276.814 559.54 276.524 560.32 276.244C560.97 276.014 561.62 275.774 562.26 275.534C562.8 275.324 563.33 275.124 563.87 274.924C565.34 274.374 566.78 273.804 568.2 273.244C568.91 272.954 569.62 272.674 570.32 272.384C571.01 272.104 571.71 271.814 572.39 271.524C573.51 271.054 574.61 270.584 575.69 270.114C576.21 269.874 576.74 269.644 577.25 269.424C577.64 269.244 578.02 269.074 578.41 268.894C578.69 268.774 578.97 268.644 579.24 268.514C580.25 268.054 581.25 267.584 582.23 267.114C585.99 265.314 589.5 263.474 592.76 261.594C613.21 249.884 624 236.894 624 223.394C624 199.934 591.39 177.994 532.18 161.624ZM531.64 283.244C489.95 294.774 438.47 302.624 382.38 306.194C359.57 307.644 335.99 308.394 312 308.394C288.09 308.394 264.59 307.654 241.85 306.204C185.67 302.644 134.11 294.794 92.3599 283.244C34.0899 267.124 2.00003 245.874 2.00003 223.394C2.00329 221.408 2.25191 219.429 2.74026 217.504C7.83987 197.224 39.21 178.244 92.3599 163.544C117.562 156.755 143.166 151.555 169.02 147.974C204.428 143.02 240.082 140.016 275.82 138.974C287.74 138.584 299.8 138.391 312 138.394C327.41 138.394 342.65 138.704 357.63 139.304C394.26 140.672 430.779 144.178 467 149.804C488.783 153.191 510.363 157.778 531.64 163.544C584.78 178.244 616.14 197.214 621.25 217.484C621.746 219.415 621.998 221.4 622 223.394C622 245.874 589.91 267.124 531.64 283.244V283.244Z" fill="#3F3D56"/>
<path id="Vector_3" d="M623.43 224.304C623.43 237.664 612.42 250.304 592.76 261.594C589.49 263.474 585.97 265.314 582.23 267.114C581.25 267.584 580.25 268.054 579.24 268.514C578.97 268.644 578.69 268.774 578.41 268.894C578.02 269.074 577.64 269.244 577.25 269.424C576.74 269.644 576.21 269.874 575.69 270.114C574.61 270.584 573.51 271.054 572.39 271.524C571.71 271.814 571.01 272.104 570.32 272.384C569.62 272.674 568.91 272.954 568.2 273.244C566.78 273.804 565.34 274.374 563.87 274.924C563.33 275.124 562.8 275.324 562.26 275.534C561.62 275.774 560.97 276.014 560.32 276.244C559.54 276.524 558.75 276.814 557.96 277.094C557.23 277.354 556.5 277.614 555.75 277.864C555.43 277.984 555.1 278.094 554.77 278.204C553.99 278.474 553.2 278.744 552.41 279.004C551.83 279.204 551.24 279.394 550.64 279.594C549.82 279.864 548.99 280.134 548.15 280.404C547 280.774 545.84 281.134 544.67 281.504C543.24 281.944 541.8 282.384 540.33 282.824C540.26 282.844 540.19 282.864 540.11 282.884C538.42 283.394 536.7 283.884 534.96 284.384C534.09 284.624 533.22 284.874 532.34 285.114C532.285 285.126 532.232 285.143 532.18 285.164C531.26 285.414 530.34 285.664 529.41 285.924C526.83 286.604 524.2 287.294 521.54 287.964C521.33 288.014 521.13 288.064 520.92 288.124C482.57 297.704 435.52 304.684 383.45 308.054C360.64 309.524 336.86 310.304 312.43 310.304C287.78 310.304 263.8 309.514 240.81 308.014C103.57 299.064 1.43015 264.984 1.43015 224.304C1.44095 221.829 1.81825 219.369 2.54977 217.004C2.60983 217.174 2.66988 217.334 2.7402 217.504C17.0097 254.984 118.28 285.274 249.68 292.664C269.81 293.804 290.66 294.394 312 294.394C333.43 294.394 354.36 293.794 374.57 292.654C505.86 285.234 607.03 254.934 621.25 217.484C621.49 216.884 621.7 216.284 621.88 215.684C622.894 218.445 623.418 221.362 623.43 224.304V224.304Z" fill="#3F3D56"/>
<path id="Vector_4" d="M91.6693 213.54C75.0266 213.54 57.3386 209.959 57.3386 203.323C57.3386 196.687 75.0266 193.106 91.6693 193.106C108.312 193.106 126 196.687 126 203.323C126 209.959 108.312 213.54 91.6693 213.54ZM91.6693 195.106C72.6163 195.106 59.3386 199.437 59.3386 203.323C59.3386 207.209 72.6163 211.54 91.6693 211.54C110.722 211.54 124 207.209 124 203.323C124 199.437 110.722 195.106 91.6693 195.106V195.106Z" fill="#3F3D56"/>
<path id="Vector_5" d="M162.669 260.54C146.027 260.54 128.339 256.959 128.339 250.323C128.339 243.687 146.027 240.106 162.669 240.106C179.312 240.106 197 243.687 197 250.323C197 256.959 179.312 260.54 162.669 260.54ZM162.669 242.106C143.616 242.106 130.339 246.437 130.339 250.323C130.339 254.209 143.616 258.54 162.669 258.54C181.722 258.54 195 254.209 195 250.323C195 246.437 181.722 242.106 162.669 242.106V242.106Z" fill="#3F3D56"/>
<path id="Vector_6" d="M531.669 213.54C515.027 213.54 497.339 209.959 497.339 203.323C497.339 196.687 515.027 193.106 531.669 193.106C548.312 193.106 566 196.687 566 203.323C566 209.959 548.312 213.54 531.669 213.54ZM531.669 195.106C512.616 195.106 499.339 199.437 499.339 203.323C499.339 207.209 512.616 211.54 531.669 211.54C550.722 211.54 564 207.209 564 203.323C564 199.437 550.722 195.106 531.669 195.106V195.106Z" fill="#3F3D56"/>
<path id="Vector_7" d="M460.669 260.54C444.027 260.54 426.339 256.959 426.339 250.323C426.339 243.687 444.027 240.106 460.669 240.106C477.312 240.106 495 243.687 495 250.323C495 256.959 477.312 260.54 460.669 260.54ZM460.669 242.106C441.616 242.106 428.339 246.437 428.339 250.323C428.339 254.209 441.616 258.54 460.669 258.54C479.722 258.54 493 254.209 493 250.323C493 246.437 479.722 242.106 460.669 242.106V242.106Z" fill="#3F3D56"/>
<path id="Vector_8" d="M311.669 282.54C295.027 282.54 277.339 278.959 277.339 272.323C277.339 265.687 295.027 262.106 311.669 262.106C328.312 262.106 346 265.687 346 272.323C346 278.959 328.312 282.54 311.669 282.54ZM311.669 264.106C292.616 264.106 279.339 268.437 279.339 272.323C279.339 276.209 292.616 280.54 311.669 280.54C330.722 280.54 344 276.209 344 272.323C344 268.437 330.722 264.106 311.669 264.106V264.106Z" fill="#3F3D56"/>
</g>
<g id="takenHuman">
<path id="Vector_9" d="M300.245 726.717C323.448 726.717 342.257 707.907 342.257 684.704C342.257 661.501 323.448 642.692 300.245 642.692C277.042 642.692 258.233 661.501 258.233 684.704C258.233 707.907 277.042 726.717 300.245 726.717Z" fill="#2F2E41"/>
<path id="Vector_10" d="M284.269 712.307L263.822 722.546L269.537 733.958L289.984 723.719L284.269 712.307Z" fill="#2F2E41"/>
<path id="Vector_11" d="M272.233 732.8C273.445 730.961 270.453 726.849 265.549 723.616C260.645 720.382 255.686 719.252 254.474 721.091C253.261 722.93 256.254 727.042 261.158 730.275C266.062 733.509 271.02 734.639 272.233 732.8Z" fill="#2F2E41"/>
<path id="Vector_12" d="M316.221 712.307L310.506 723.719L330.953 733.958L336.668 722.546L316.221 712.307Z" fill="#2F2E41"/>
<path id="Vector_13" d="M339.332 730.275C344.236 727.042 347.229 722.93 346.016 721.091C344.804 719.252 339.845 720.382 334.941 723.616C330.037 726.849 327.044 730.961 328.257 732.8C329.47 734.639 334.428 733.509 339.332 730.275Z" fill="#2F2E41"/>
<path id="Vector_14" d="M297.304 688.786C305.234 688.786 311.662 682.358 311.662 674.428C311.662 666.498 305.234 660.069 297.304 660.069C289.374 660.069 282.945 666.498 282.945 674.428C282.945 682.358 289.374 688.786 297.304 688.786Z" fill="white"/>
<path id="Vector_15" d="M300.796 671.675C302.658 669.814 302.647 666.785 300.773 664.911C298.898 663.036 295.87 663.026 294.008 664.887C292.147 666.748 292.158 669.777 294.032 671.651C295.907 673.526 298.935 673.536 300.796 671.675Z" fill="#3F3D56"/>
<path id="Vector_16" d="M333.247 638.938C333.846 623.657 321.134 610.713 304.853 610.028C288.573 609.343 274.889 621.176 274.29 636.457C273.691 651.738 285.008 655.21 301.288 655.896C317.569 656.581 332.648 654.22 333.247 638.938Z" fill="#6C63FF"/>
<path id="Vector_17" d="M357.604 706.703C360.367 704.331 356.481 695.272 348.925 686.469C341.368 677.667 333.002 672.454 330.238 674.826C327.475 677.198 331.361 686.258 338.917 695.06C346.474 703.863 354.84 709.076 357.604 706.703Z" fill="#2F2E41"/>
<path id="Vector_18" d="M261.69 695.06C269.247 686.258 273.133 677.198 270.369 674.826C267.606 672.454 259.24 677.667 251.683 686.469C244.126 695.272 240.24 704.331 243.004 706.703C245.767 709.076 254.133 703.863 261.69 695.06Z" fill="#2F2E41"/>
<path id="Vector_19" d="M313.121 699.906C313.549 702.361 313.026 704.893 311.667 706.945C310.307 708.997 308.224 710.401 305.874 710.848C303.523 711.295 301.1 710.748 299.135 709.328C297.171 707.908 295.827 705.731 295.4 703.276L295.396 703.258C294.51 698.145 298.295 696.335 303.189 695.41C308.084 694.484 312.235 694.793 313.121 699.906Z" fill="white"/>
</g>
<g id="LaserRain">
<path id="Vector_20" d="M266 495.394C265.47 495.394 264.961 495.183 264.586 494.808C264.211 494.433 264 493.924 264 493.394V375.394C264 374.864 264.211 374.355 264.586 373.98C264.961 373.605 265.47 373.394 266 373.394C266.53 373.394 267.039 373.605 267.414 373.98C267.789 374.355 268 374.864 268 375.394V493.394C268 493.924 267.789 494.433 267.414 494.808C267.039 495.183 266.53 495.394 266 495.394Z" fill="#CCCCCC"/>
<path id="Vector_21" d="M353 495C352.47 495 351.961 494.789 351.586 494.414C351.211 494.039 351 493.53 351 493V375C351 374.47 351.211 373.961 351.586 373.586C351.961 373.211 352.47 373 353 373C353.53 373 354.039 373.211 354.414 373.586C354.789 373.961 355 374.47 355 375V493C355 493.53 354.789 494.039 354.414 494.414C354.039 494.789 353.53 495 353 495Z" fill="#CCCCCC"/>
<path id="Vector_22" d="M309 495C308.47 495 307.961 494.789 307.586 494.414C307.211 494.039 307 493.53 307 493V375C307 374.47 307.211 373.961 307.586 373.586C307.961 373.211 308.47 373 309 373C309.53 373 310.039 373.211 310.414 373.586C310.789 373.961 311 374.47 311 375V493C311 493.53 310.789 494.039 310.414 494.414C310.039 494.789 309.53 495 309 495Z" fill="#CCCCCC"/>
<path id="Vector_23" d="M236 601.394C235.47 601.394 234.961 601.183 234.586 600.808C234.211 600.433 234 599.924 234 599.394V513.394C234 512.864 234.211 512.355 234.586 511.98C234.961 511.605 235.47 511.394 236 511.394C236.53 511.394 237.039 511.605 237.414 511.98C237.789 512.355 238 512.864 238 513.394V599.394C238 599.924 237.789 600.433 237.414 600.808C237.039 601.183 236.53 601.394 236 601.394V601.394Z" fill="#CCCCCC"/>
<path id="Vector_24" d="M288 563C287.47 563 286.961 562.789 286.586 562.414C286.211 562.039 286 561.53 286 561V513C286 512.47 286.211 511.961 286.586 511.586C286.961 511.211 287.47 511 288 511C288.53 511 289.039 511.211 289.414 511.586C289.789 511.961 290 512.47 290 513V561C290 561.53 289.789 562.039 289.414 562.414C289.039 562.789 288.53 563 288 563V563Z" fill="#CCCCCC"/>
<path id="Vector_25" d="M325 369.394C324.47 369.394 323.961 369.183 323.586 368.808C323.211 368.433 323 367.924 323 367.394V319.394C323 318.864 323.211 318.355 323.586 317.98C323.961 317.605 324.47 317.394 325 317.394C325.53 317.394 326.039 317.605 326.414 317.98C326.789 318.355 327 318.864 327 319.394V367.394C327 367.924 326.789 368.433 326.414 368.808C326.039 369.183 325.53 369.394 325 369.394V369.394Z" fill="#CCCCCC"/>
<path id="Vector_26" d="M225 390.394C224.47 390.394 223.961 390.183 223.586 389.808C223.211 389.433 223 388.924 223 388.394V340.394C223 339.864 223.211 339.355 223.586 338.98C223.961 338.605 224.47 338.394 225 338.394C225.53 338.394 226.039 338.605 226.414 338.98C226.789 339.355 227 339.864 227 340.394V388.394C227 388.924 226.789 389.433 226.414 389.808C226.039 390.183 225.53 390.394 225 390.394V390.394Z" fill="#CCCCCC"/>
<path id="Vector_27" d="M399 395.394C398.47 395.394 397.961 395.183 397.586 394.808C397.211 394.433 397 393.924 397 393.394V345.394C397 344.864 397.211 344.355 397.586 343.98C397.961 343.605 398.47 343.394 399 343.394C399.53 343.394 400.039 343.605 400.414 343.98C400.789 344.355 401 344.864 401 345.394V393.394C401 393.924 400.789 394.433 400.414 394.808C400.039 395.183 399.53 395.394 399 395.394Z" fill="#CCCCCC"/>
<path id="Vector_28" d="M395 545.394C394.47 545.394 393.961 545.183 393.586 544.808C393.211 544.433 393 543.924 393 543.394V485.394C393 484.864 393.211 484.355 393.586 483.98C393.961 483.605 394.47 483.394 395 483.394C395.53 483.394 396.039 483.605 396.414 483.98C396.789 484.355 397 484.864 397 485.394V543.394C397 543.924 396.789 544.433 396.414 544.808C396.039 545.183 395.53 545.394 395 545.394Z" fill="#CCCCCC"/>
<path id="Vector_29" d="M355 596.394C354.47 596.394 353.961 596.183 353.586 595.808C353.211 595.433 353 594.924 353 594.394V508.394C353 507.864 353.211 507.355 353.586 506.98C353.961 506.605 354.47 506.394 355 506.394C355.53 506.394 356.039 506.605 356.414 506.98C356.789 507.355 357 507.864 357 508.394V594.394C357 594.924 356.789 595.433 356.414 595.808C356.039 596.183 355.53 596.394 355 596.394Z" fill="#CCCCCC"/>
</g>
<g id="surprisedHuman">
<path id="Vector_30" d="M608.193 700.491C611.056 698.094 607.187 688.759 599.552 679.641C591.918 670.522 583.408 665.073 580.545 667.47C577.683 669.866 581.551 679.202 589.186 688.32C596.821 697.439 605.33 702.888 608.193 700.491Z" fill="#2F2E41"/>
<path id="Vector_31" d="M589.419 690.121C596.941 667.557 584.746 643.167 562.181 635.645C539.616 628.124 515.226 640.318 507.705 662.883C500.183 685.448 512.378 709.838 534.943 717.36C557.508 724.881 581.898 712.686 589.419 690.121Z" fill="#2F2E41"/>
<path id="Vector_32" d="M566.791 710.302H553.707V733.744H566.791V710.302Z" fill="#2F2E41"/>
<path id="Vector_33" d="M540.623 710.302H527.54V733.744H540.623V710.302Z" fill="#2F2E41"/>
<path id="Vector_34" d="M555.888 738.105C561.909 738.105 566.791 736.274 566.791 734.016C566.791 731.758 561.909 729.928 555.888 729.928C549.866 729.928 544.985 731.758 544.985 734.016C544.985 736.274 549.866 738.105 555.888 738.105Z" fill="#2F2E41"/>
<path id="Vector_35" d="M529.72 737.56C535.742 737.56 540.623 735.729 540.623 733.471C540.623 731.213 535.742 729.382 529.72 729.382C523.699 729.382 518.817 731.213 518.817 733.471C518.817 735.729 523.699 737.56 529.72 737.56Z" fill="#2F2E41"/>
<path id="Vector_36" d="M535.039 622.365C538.885 606.878 555.86 597.765 572.954 602.009C590.048 606.254 600.788 622.25 596.943 637.737C593.097 653.224 580.339 653.274 563.245 649.029C546.15 644.784 531.194 637.853 535.039 622.365Z" fill="#CCCCCC"/>
<path id="Vector_37" d="M519.51 665.747C521.11 662.373 513.696 655.507 502.951 650.411C492.205 645.315 482.198 643.918 480.598 647.291C478.998 650.664 486.412 657.53 497.157 662.627C507.902 667.723 517.91 669.12 519.51 665.747Z" fill="#2F2E41"/>
<path id="Vector_38" d="M542.123 681.773C550.054 681.773 556.482 675.345 556.482 667.415C556.482 659.485 550.054 653.056 542.123 653.056C534.193 653.056 527.765 659.485 527.765 667.415C527.765 675.345 534.193 681.773 542.123 681.773Z" fill="white"/>
<path id="Vector_39" d="M536.222 667.054C538.865 667.054 541.008 664.911 541.008 662.268C541.008 659.625 538.865 657.482 536.222 657.482C533.579 657.482 531.436 659.625 531.436 662.268C531.436 664.911 533.579 667.054 536.222 667.054Z" fill="#3F3D56"/>
<path id="Vector_40" d="M542 703.394C545.314 703.394 548 700.708 548 697.394C548 694.08 545.314 691.394 542 691.394C538.686 691.394 536 694.08 536 697.394C536 700.708 538.686 703.394 542 703.394Z" fill="white"/>
<path id="Vector_41" d="M671.531 738.394H435.531C435.266 738.394 435.012 738.289 434.824 738.101C434.637 737.914 434.531 737.659 434.531 737.394C434.531 737.129 434.637 736.874 434.824 736.687C435.012 736.499 435.266 736.394 435.531 736.394H671.531C671.797 736.394 672.051 736.499 672.238 736.687C672.426 736.874 672.531 737.129 672.531 737.394C672.531 737.659 672.426 737.914 672.238 738.101C672.051 738.289 671.797 738.394 671.531 738.394Z" fill="#3F3D56"/>
</g>
</g>
<defs>
<clipPath id="clip0">
<rect width="672.531" height="738.394" fill="white"/>
</clipPath>
</defs>
</svg>
