<svg viewBox="0 0 801 542" fill="none" xmlns="http://www.w3.org/2000/svg">
<g id="checklistGirl" clip-path="url(#clip0)">
<path id="looseHair" d="M197.68 197.39C203.014 187.32 203.895 174.203 197.262 164.936C193.313 159.42 187.148 155.799 180.678 153.756C174.209 151.714 167.385 151.114 160.619 150.617C153.922 150.126 147.105 149.733 140.563 151.247C134.021 152.762 127.684 156.463 124.497 162.374C119.113 172.359 124.017 185.163 120.063 195.796C116.434 205.554 106.105 211.258 95.9524 213.561C85.7994 215.863 75.2022 215.618 65.0442 217.898C54.8861 220.177 44.5406 225.829 40.8473 235.563C38.1765 242.602 39.5035 250.709 43.0227 257.364C46.542 264.019 52.0535 269.407 57.9039 274.145C66.6317 281.214 76.8427 287.268 88.057 287.88C99.8733 288.526 111.427 282.901 119.932 274.672C128.437 266.444 134.227 255.81 138.853 244.918C141.787 238.008 144.56 230.571 150.441 225.905C154.762 222.476 160.259 220.974 165.589 219.553L171.625 217.944C177.094 216.513 182.213 213.978 186.666 210.495C191.119 207.012 194.812 202.655 197.519 197.691C197.573 197.591 197.626 197.491 197.68 197.39Z" fill="#2F2E41"/>
<path id="Vector" d="M150.079 528.665H137.82L131.987 481.377H150.082L150.079 528.665Z" fill="#FFB8B8"/>
<path id="Vector_2" d="M129.062 525.162H152.706V540.049H114.176C114.176 538.094 114.561 536.158 115.309 534.352C116.057 532.545 117.153 530.904 118.536 529.522C119.918 528.14 121.559 527.043 123.366 526.295C125.172 525.547 127.107 525.162 129.062 525.162V525.162Z" fill="#2F2E41"/>
<path id="Vector_3" d="M252.079 528.665H239.82L233.987 481.377H252.082L252.079 528.665Z" fill="#FFB8B8"/>
<path id="Vector_4" d="M231.062 525.162H254.706V540.049H216.176C216.176 538.094 216.561 536.158 217.309 534.352C218.057 532.545 219.153 530.904 220.536 529.522C221.918 528.14 223.559 527.043 225.365 526.295C227.172 525.547 229.107 525.162 231.062 525.162V525.162Z" fill="#2F2E41"/>
<path id="Vector_5" d="M173.646 491.08C173.475 491.08 173.304 491.071 173.134 491.053L123.256 485.708C122.594 485.638 121.954 485.426 121.38 485.089C120.805 484.751 120.31 484.295 119.925 483.751C119.541 483.207 119.277 482.587 119.15 481.933C119.024 481.279 119.039 480.605 119.193 479.957L163.356 311.987C163.562 311.132 164.004 310.353 164.63 309.735C165.257 309.118 166.043 308.689 166.901 308.495L207.869 297.075C208.69 296.894 209.545 296.936 210.345 297.197C211.145 297.457 211.86 297.927 212.418 298.557C238.758 328.267 258.608 394.128 273.645 477.142C273.758 477.768 273.743 478.411 273.6 479.031C273.457 479.652 273.189 480.237 272.813 480.75C272.436 481.264 271.96 481.695 271.411 482.019C270.863 482.342 270.254 482.551 269.623 482.631L228.755 487.849C227.596 488 226.422 487.711 225.465 487.04C224.508 486.369 223.837 485.364 223.584 484.222L203.701 395.574C203.518 394.758 203.06 394.03 202.404 393.511C201.749 392.992 200.935 392.714 200.098 392.724C199.262 392.734 198.455 393.03 197.811 393.564C197.168 394.098 196.727 394.837 196.563 395.657L178.233 487.308C178.025 488.371 177.454 489.329 176.617 490.018C175.78 490.706 174.73 491.082 173.646 491.08V491.08Z" fill="#2F2E41"/>
<path id="Vector_6" d="M166.059 220.455C179.624 220.455 190.62 209.459 190.62 195.894C190.62 182.329 179.624 171.333 166.059 171.333C152.494 171.333 141.498 182.329 141.498 195.894C141.498 209.459 152.494 220.455 166.059 220.455Z" fill="#FFB8B8"/>
<path id="Vector_7" d="M165.373 312.459C164.341 312.458 163.337 312.116 162.52 311.486C161.702 310.855 161.115 309.972 160.852 308.974L146.076 253.464C145.01 249.476 145.451 245.234 147.316 241.55C149.182 237.867 152.34 235.001 156.186 233.5C168.08 228.857 179.412 227.135 189.866 228.379C199.158 229.486 210.621 284.497 209.863 285.671L213.529 296.67C213.737 297.294 213.812 297.955 213.748 298.609C213.684 299.264 213.483 299.897 213.159 300.469C212.834 301.041 212.393 301.538 211.864 301.929C211.335 302.319 210.729 302.594 210.087 302.735L166.392 312.347C166.058 312.422 165.716 312.459 165.373 312.459V312.459Z" fill="#CCCCCC"/>
<path id="Vector_8" d="M178.615 369.226C178.826 368.134 178.794 367.008 178.523 365.929C178.251 364.85 177.746 363.844 177.044 362.981C176.342 362.119 175.458 361.42 174.457 360.936C173.455 360.451 172.36 360.192 171.247 360.177L162.734 334.507L154.034 345.544L163.452 368.228C163.55 370.099 164.331 371.868 165.646 373.202C166.962 374.535 168.721 375.34 170.59 375.463C172.459 375.586 174.309 375.019 175.788 373.869C177.267 372.72 178.273 371.068 178.615 369.226V369.226Z" fill="#FFB8B8"/>
<path id="Vector_9" d="M288.063 307.534C287.553 306.545 286.833 305.68 285.953 304.999C285.072 304.319 284.054 303.839 282.968 303.595C281.883 303.351 280.757 303.348 279.67 303.586C278.583 303.824 277.562 304.297 276.678 304.972L254.122 290.051L254.101 304.104L275.524 316.12C276.757 317.53 278.464 318.439 280.323 318.674C282.181 318.909 284.061 318.455 285.607 317.396C287.152 316.338 288.256 314.749 288.709 312.932C289.161 311.114 288.931 309.194 288.063 307.534H288.063Z" fill="#FFB8B8"/>
<path id="Vector_10" d="M160.768 357.366C159.781 357.366 158.82 357.056 158.02 356.478C157.22 355.9 156.623 355.085 156.314 354.149L136.357 311.932C135.538 309.458 135.121 306.869 135.122 304.263L141.122 249.392C141.122 246.32 142.294 243.363 144.4 241.126C146.505 238.889 149.385 237.54 152.452 237.354C155.518 237.168 158.54 238.16 160.901 240.126C163.261 242.093 164.781 244.886 165.152 247.936L155.972 310.567L170.621 349.007C170.853 350.03 170.735 351.101 170.285 352.048C169.836 352.995 169.081 353.765 168.143 354.232L162.865 356.872C162.214 357.197 161.496 357.367 160.768 357.366Z" fill="#CCCCCC"/>
<path id="Vector_11" d="M267.352 313.076C266.617 313.077 265.892 312.904 265.237 312.573L225.549 292.526C223.222 291.352 221.099 289.812 219.26 287.965L180.523 249.103C178.354 246.927 177.098 244.006 177.01 240.935C176.922 237.864 178.009 234.875 180.05 232.579C182.091 230.283 184.931 228.852 187.991 228.579C191.051 228.306 194.1 229.211 196.515 231.109L238.478 277.712L271.741 298.832C272.627 299.392 273.299 300.234 273.65 301.222C274 302.211 274.009 303.288 273.674 304.282L271.799 309.877C271.486 310.809 270.889 311.619 270.091 312.193C269.293 312.767 268.334 313.076 267.351 313.077L267.352 313.076Z" fill="#CCCCCC"/>
<path id="Vector_12" d="M138.122 183.196C142.294 188.654 148.291 192.427 155.017 193.827C161.834 195.236 168.93 194.219 175.077 190.953C180.024 188.28 183.982 184.269 187.859 180.319C189.477 178.671 191.201 176.77 191.119 174.522C190.993 171.038 186.805 169.134 183.211 168.374C171.412 165.913 159.135 167.293 148.178 172.314C143.298 174.581 138.213 178.682 138.946 183.78" fill="#2F2E41"/>
<path id="Vector_13" d="M783.122 189.445H301.122C296.615 189.452 292.295 191.245 289.108 194.432C285.922 197.618 284.128 201.939 284.122 206.445V392.445C284.128 396.952 285.922 401.272 289.108 404.459C292.295 407.646 296.615 409.439 301.122 409.445H783.122C787.629 409.439 791.949 407.646 795.136 404.459C798.323 401.272 800.116 396.952 800.122 392.445V206.445C800.116 201.939 798.323 197.618 795.136 194.432C791.949 191.245 787.629 189.452 783.122 189.445V189.445ZM798.122 392.445C798.117 396.422 796.535 400.235 793.723 403.047C790.911 405.859 787.099 407.44 783.122 407.445H301.122C297.145 407.44 293.333 405.859 290.521 403.047C287.709 400.235 286.127 396.422 286.122 392.445V206.445C286.127 202.469 287.709 198.656 290.521 195.844C293.333 193.032 297.145 191.45 301.122 191.445H783.122C787.099 191.45 790.911 193.032 793.723 195.844C796.535 198.656 798.117 202.469 798.122 206.445V392.445Z" fill="#3F3D56"/>
<path id="Vector_14" d="M388.636 357.445C377.164 357.445 365.951 354.044 356.413 347.671C346.875 341.297 339.441 332.239 335.051 321.641C330.661 311.043 329.512 299.381 331.75 288.13C333.988 276.879 339.512 266.545 347.624 258.433C355.735 250.322 366.07 244.798 377.32 242.56C388.571 240.322 400.233 241.47 410.831 245.86C421.429 250.25 430.488 257.684 436.861 267.222C443.234 276.76 446.636 287.974 446.636 299.445C446.618 314.823 440.502 329.565 429.629 340.438C418.755 351.312 404.013 357.428 388.636 357.445V357.445ZM388.636 243.445C377.56 243.445 366.733 246.73 357.524 252.883C348.315 259.036 341.137 267.782 336.898 278.015C332.66 288.248 331.551 299.507 333.712 310.37C335.872 321.233 341.206 331.212 349.038 339.043C356.869 346.875 366.848 352.208 377.711 354.369C388.574 356.53 399.833 355.421 410.066 351.183C420.299 346.944 429.045 339.766 435.198 330.557C441.351 321.348 444.636 310.521 444.636 299.445C444.619 284.598 438.714 270.364 428.215 259.866C417.717 249.368 403.483 243.462 388.636 243.445Z" fill="#3F3D56"/>
<path id="Vector_15" d="M740.108 262.445H509.108C505.879 262.447 502.777 263.699 500.45 265.938C498.124 268.176 496.754 271.229 496.628 274.455C496.612 274.618 496.605 274.782 496.608 274.945C496.613 278.259 497.931 281.436 500.275 283.779C502.618 286.122 505.794 287.441 509.108 287.445H740.108C743.423 287.445 746.603 286.128 748.947 283.784C751.291 281.44 752.608 278.261 752.608 274.945C752.608 271.63 751.291 268.451 748.947 266.106C746.603 263.762 743.423 262.445 740.108 262.445Z" fill="#6C63FF"/>
<path id="Vector_16" d="M740.108 311.445H509.108C505.879 311.447 502.777 312.699 500.45 314.938C498.124 317.176 496.754 320.229 496.628 323.455C496.612 323.618 496.605 323.782 496.608 323.945C496.613 327.259 497.931 330.436 500.275 332.779C502.618 335.122 505.794 336.441 509.108 336.445H740.108C743.423 336.445 746.603 335.128 748.947 332.784C751.291 330.44 752.608 327.261 752.608 323.945C752.608 320.63 751.291 317.451 748.947 315.106C746.603 312.762 743.423 311.445 740.108 311.445V311.445Z" fill="#6C63FF"/>
<path id="Vector_17" d="M382.165 324.787C380.547 324.79 378.971 324.267 377.676 323.296L377.596 323.236L360.692 310.293C359.909 309.694 359.252 308.945 358.759 308.092C358.265 307.238 357.944 306.295 357.815 305.318C357.685 304.34 357.75 303.346 358.004 302.394C358.259 301.441 358.699 300.547 359.298 299.765C359.898 298.982 360.646 298.325 361.5 297.831C362.354 297.337 363.297 297.016 364.274 296.887C365.252 296.758 366.246 296.822 367.198 297.077C368.151 297.331 369.045 297.771 369.827 298.371L380.777 306.766L406.651 273.022C407.251 272.24 408 271.583 408.853 271.089C409.707 270.596 410.65 270.276 411.628 270.146C412.606 270.017 413.599 270.082 414.552 270.337C415.505 270.592 416.398 271.032 417.18 271.632L417.02 271.851L417.185 271.635C418.763 272.849 419.796 274.639 420.057 276.613C420.317 278.587 419.784 280.584 418.575 282.165L388.14 321.856C387.436 322.771 386.531 323.511 385.495 324.019C384.459 324.528 383.319 324.79 382.165 324.787V324.787Z" fill="#6C63FF"/>
<path id="Vector_18" d="M382 541.445H1.00003C0.734814 541.445 0.480459 541.34 0.292923 541.152C0.105387 540.965 3.05176e-05 540.711 3.05176e-05 540.445C3.05176e-05 540.18 0.105387 539.926 0.292923 539.738C0.480459 539.551 0.734814 539.445 1.00003 539.445H382C382.265 539.445 382.52 539.551 382.707 539.738C382.895 539.926 383 540.18 383 540.445C383 540.711 382.895 540.965 382.707 541.152C382.52 541.34 382.265 541.445 382 541.445Z" fill="#3F3D56"/>
</g>
<defs>
<clipPath id="clip0">
<rect width="800.122" height="541.445" fill="white"/>
</clipPath>
</defs>
</svg>
