<svg fill="none" xmlns="http://www.w3.org/2000/svg" viewBox="0 0 973 483"><path d="M268.859 102l7.671 13.288h-15.343L268.859 102z" fill="#72777D"></path><path d="M12.859 221l7.671 13.288H5.187L12.859 221zM89.859 293l7.671 13.288H82.187L89.859 293z" fill="#A2A9B1"></path><path d="M221.859 321l7.671 13.288h-15.343L221.859 321z" fill="#202122"></path><path d="M179.859 227l7.671 13.288h-15.343L179.859 227zM823.324 347.86l7.672 13.288h-15.343l7.671-13.288z" fill="#C8CCD1"></path><path d="M866.879 412.084l7.672 13.288h-15.344l7.672-13.288zM98.859 176l7.671 13.288H91.187L98.859 176z" fill="#A2A9B1"></path><path d="M368.585 339.001l7.672 13.288h-15.343l7.671-13.288zM465.291 302.091l7.672 13.288H457.62l7.671-13.288z" fill="#72777D"></path><path d="M393.685 126.396l7.671 13.288h-15.343l7.672-13.288zM309.528 245.987l7.672 13.288h-15.343l7.671-13.288z" fill="#A2A9B1"></path><path d="M738.859 105l7.671 13.288h-15.343L738.859 105z" fill="#EAECF0"></path><path d="M563.474 413.561l7.671 13.288h-15.343l7.672-13.288z" fill="#C8CCD1"></path><path d="M483.008 395.844l7.672 13.288h-15.343l7.671-13.288z" fill="#A2A9B1"></path><path d="M903.051 82.103l7.672 13.288H895.38l7.671-13.288z" fill="#72777D"></path><path d="M877.952 157.401l7.672 13.288H870.28l7.672-13.288zM576.761 144.113h11.073v11.073h-11.073z" fill="#A2A9B1"></path><path d="M958.811 247.335L952.906 237 947 247.335l5.906 10.335 5.905-10.335z" fill="#C8CCD1"></path><path d="M650.811 383.335L644.906 373 639 383.335l5.906 10.335 5.905-10.335z" fill="#202122"></path><path d="M688.811 185.335L682.906 175 677 185.335l5.906 10.335 5.905-10.335z" fill="#C8CCD1"></path><path d="M27.811 130.335L21.906 120 16 130.335l5.906 10.335 5.905-10.335zM172.811 358.335L166.906 348 161 358.335l5.906 10.335 5.905-10.335z" fill="#202122"></path><path d="M148.811 96.335L142.906 86 137 96.335l5.906 10.335 5.905-10.335z" fill="#72777D"></path><path d="M470.811 154.335L464.906 144 459 154.335l5.906 10.335 5.905-10.335z" fill="#A2A9B1"></path><circle cx="29.846" cy="334.846" r="1.846" fill="#72777D"></circle><circle cx="145.846" cy="283.846" r="1.846" fill="#A2A9B1"></circle><circle cx="667.192" cy="256.691" r="1.846" fill="#202122"></circle><circle cx="574.916" cy="375.543" r="1.846" fill="#EAECF0"></circle><circle cx="335.735" cy="171.796" r="1.846" fill="#202122"></circle><circle cx="746.181" cy="250.047" r="1.846" fill="#72777D"></circle><circle cx="848.055" cy="206.492" r="1.846" fill="#72777D"></circle><circle cx="370.431" cy="372.59" r="1.846" fill="#A2A9B1"></circle><circle cx="755.04" cy="213.136" r="1.846" fill="#C8CCD1"></circle><circle cx="326.876" cy="207.969" r="1.846" fill="#72777D"></circle><circle cx="288.489" cy="290.648" r="1.846" fill="#C8CCD1"></circle><circle cx="433.179" cy="303.936" r="1.846" fill="#C8CCD1"></circle><circle cx="396.268" cy="346.014" r="1.846" fill="#202122"></circle><circle cx="301.039" cy="151.865" r="1.846" fill="#A2A9B1"></circle><circle cx="777.924" cy="421.312" r="1.846" fill="#202122"></circle><circle cx="555.722" cy="348.967" r="1.846" fill="#72777D"></circle><circle cx="942.546" cy="300.245" r="1.846" fill="#EAECF0"></circle><circle cx="69.846" cy="108.846" r="1.846" fill="#202122"></circle><circle cx="73.846" cy="256.846" r="1.846" fill="#72777D"></circle><circle cx="752.825" cy="480.369" r="1.846" fill="#EAECF0"></circle><circle cx="190.846" cy="260.846" r="1.846" fill="#C8CCD1"></circle><circle cx="846.578" cy="413.192" r="1.846" fill="#72777D"></circle><circle cx="944.022" cy="133.409" r="1.846" fill="#C8CCD1"></circle><circle cx="722.558" cy="324.606" r="1.846" fill="#202122"></circle><circle cx="315.803" cy="391.784" r="1.846" fill="#72777D"></circle><circle cx="434.656" cy="427.956" r="1.846" fill="#C8CCD1"></circle><circle cx="1.846" cy="202.846" r="1.846" fill="#72777D"></circle><circle cx="761.684" cy="320.915" r="1.846" fill="#202122"></circle><circle cx="724.035" cy="180.655" r="1.846" fill="#202122"></circle><circle cx="356.405" cy="265.549" r="1.846" fill="#EAECF0"></circle><circle cx="892.347" cy="224.209" r="1.846" fill="#EAECF0"></circle><circle cx="109.846" cy="348.846" r="1.846" fill="#EAECF0"></circle><circle cx="666.846" cy="134.846" r="1.846" fill="#C8CCD1"></circle><circle cx="226.846" cy="384.846" r="1.846" fill="#EAECF0"></circle><circle cx="910.064" cy="387.354" r="1.846" fill="#C8CCD1"></circle><circle cx="828.861" cy="446.411" r="1.846" fill="#C8CCD1"></circle><circle cx="866.51" cy="479.631" r="1.846" fill="#EAECF0"></circle><circle cx="968.383" cy="299.507" r="1.846" fill="#C8CCD1"></circle><circle cx="539.482" cy="464.128" r="1.846" fill="#EAECF0"></circle><circle cx="91.846" cy="143.846" r="1.846" fill="#EAECF0"></circle><circle cx="765.375" cy="287.696" r="1.846" fill="#A2A9B1"></circle><circle cx="228.846" cy="202.846" r="1.846" fill="#202122"></circle><circle cx="791.212" cy="370.375" r="1.846" fill="#72777D"></circle><circle cx="797.856" cy="221.256" r="1.846" fill="#72777D"></circle><circle cx="890.871" cy="51.468" r="1.846" fill="#202122"></circle><circle cx="684.846" cy="432.846" r="1.846" fill="#202122"></circle><circle cx="166.846" cy="171.846" r="1.846" fill="#C8CCD1"></circle><circle cx="625.853" cy="311.318" r="1.846" fill="#202122"></circle><circle cx="569.748" cy="226.424" r="1.846" fill="#202122"></circle><circle cx="786.846" cy="126.846" r="1.846" fill="#C8CCD1"></circle><circle cx="970.598" cy="2.746" r="1.846" fill="#72777D"></circle><circle cx="844.363" cy="120.121" r="1.846" fill="#EAECF0"></circle><circle cx="281.846" cy="338.632" r="1.846" fill="#A2A9B1"></circle><circle cx="938.855" cy="229.377" r="1.846" fill="#72777D"></circle><circle cx="614.846" cy="460.846" r="1.846" fill="#202122"></circle><circle cx="970.598" cy="462.652" r="1.846" fill="#EAECF0"></circle><circle cx="484.116" cy="206.492" r="1.846" fill="#C8CCD1"></circle><circle cx="627.329" cy="207.969" r="1.846" fill="#A2A9B1"></circle><circle cx="522.503" cy="272.931" r="1.846" fill="#72777D"></circle><circle cx="431.703" cy="247.832" r="1.846" fill="#72777D"></circle>
					<circle id="project1" class="project-circle wp20-fill-color-11" cx="506.096" cy="198.9" r="11" fill="#c51010"></circle>
					<circle id="project2" class="project-circle wp20-fill-color-1" cx="464.922" cy="356.349" r="11" fill="#03f33f"></circle>
					<circle id="project3" class="project-circle wp20-fill-color-2" cx="386.228" cy="278.228" r="11" fill="#9003ee"></circle>
					<circle id="project4" class="project-circle wp20-fill-color-3" cx="555.722" cy="268.502" r="11" fill="#ff00f2"></circle>
					<circle id="project5" class="project-circle wp20-fill-color-4" cx="822.217" cy="241.188" r="11" fill="#00ffff"></circle>
					<circle id="project6" class="project-circle wp20-fill-color-5" cx="202.228" cy="159.228" r="11" fill="#f56200"></circle>
					<circle id="project7" class="project-circle wp20-fill-color-6" cx="859.866" cy="306.151" r="11" fill="#0011ff"></circle>
					<circle id="project8" class="project-circle wp20-fill-color-7" cx="680.228" cy="307.228" r="11" fill="#ff00ff"></circle>
					<circle id="project9" class="project-circle wp20-fill-color-8" cx="750.578" cy="372.226" r="11" fill="#3178a1"></circle>
					<circle id="project10" class="project-circle wp20-fill-color-9" cx="410.295" cy="200.587" r="11" fill="#000"></circle>
					<circle id="project11" class="project-circle wp20-fill-color-10" cx="636.228" cy="237.228" r="11" fill="#000"></circle>
					<circle id="project12" class="project-circle wp20-fill-color-11" cx="938.786" cy="345.276" r="11" fill="#000"></circle>
					<circle id="project13" class="project-circle wp20-fill-color-1" cx="260.228" cy="254.228" r="11" fill="#72004c"></circle>
				</svg>
               