<svg id="movieSVG" viewBox="0 0 868 501" fill="none" xmlns="http://www.w3.org/2000/svg">
<g id="undraw_movie_night_fldd 1" clip-path="url(#clip0)">
<path id="Vector" d="M14.9553 192.036H300.153C303.866 192.036 307.427 193.511 310.052 196.136C312.678 198.762 314.153 202.323 314.153 206.036V228.274H0.955322V206.036C0.955325 202.323 2.43032 198.762 5.05582 196.136C7.68133 193.511 11.2423 192.036 14.9553 192.036V192.036Z" fill="#3F3D56"/>
<path id="Vector_2" d="M294.74 189.447C293.331 189.454 291.932 189.692 290.6 190.152C290.144 188.314 289.03 186.707 287.469 185.634C285.908 184.562 284.009 184.097 282.129 184.329C280.25 184.561 278.52 185.473 277.267 186.893C276.013 188.312 275.323 190.142 275.327 192.036C275.327 192.075 275.336 192.11 275.337 192.149C274.367 192.241 273.409 192.439 272.482 192.741C272.219 191.696 271.742 190.716 271.081 189.865C270.42 189.014 269.59 188.308 268.643 187.794C271.131 186.419 273.099 184.265 274.244 181.663C280.577 181.56 285.68 176.982 285.68 171.329C285.68 165.61 280.466 160.975 274.033 160.975C272.623 160.981 271.225 161.219 269.893 161.68C269.654 160.662 269.212 159.703 268.592 158.861C267.972 158.018 267.188 157.311 266.287 156.78C265.386 156.249 264.387 155.906 263.35 155.772C262.313 155.638 261.259 155.716 260.253 156C259.247 156.285 258.309 156.77 257.495 157.427C256.682 158.084 256.01 158.899 255.52 159.823C255.03 160.747 254.733 161.761 254.646 162.803C254.558 163.845 254.683 164.894 255.013 165.886C254.703 166.101 254.414 166.343 254.125 166.584C252.661 165.324 250.759 164.691 248.832 164.822C247.837 161.964 245.867 159.546 243.268 157.994C240.67 156.442 237.608 155.854 234.619 156.332C231.63 156.811 228.905 158.326 226.921 160.612C224.937 162.898 223.821 165.809 223.768 168.836C222.73 168.918 221.704 169.122 220.713 169.445C220.602 169.007 220.453 168.58 220.267 168.168C221.289 167.266 222.11 166.16 222.677 164.921C223.244 163.682 223.544 162.338 223.559 160.975C223.559 155.257 218.344 150.621 211.911 150.621C210.502 150.628 209.103 150.866 207.771 151.326C207.532 150.308 207.09 149.349 206.47 148.507C205.85 147.665 205.066 146.957 204.165 146.426C203.264 145.895 202.265 145.553 201.228 145.419C200.191 145.285 199.137 145.362 198.131 145.647C197.125 145.931 196.187 146.417 195.373 147.074C194.56 147.731 193.888 148.546 193.398 149.47C192.908 150.393 192.611 151.407 192.524 152.449C192.437 153.491 192.561 154.54 192.891 155.532C191.261 156.664 189.914 158.157 188.954 159.894C187.995 161.631 187.449 163.565 187.359 165.548C187.249 165.645 187.124 165.724 187.02 165.827C187.214 165.088 187.315 164.327 187.321 163.563C187.321 157.845 182.106 153.21 175.673 153.21C174.264 153.216 172.865 153.454 171.534 153.915C171.295 152.897 170.852 151.937 170.232 151.095C169.612 150.253 168.828 149.545 167.927 149.015C167.026 148.484 166.027 148.141 164.99 148.007C163.953 147.873 162.9 147.951 161.893 148.235C160.887 148.52 159.949 149.005 159.136 149.662C158.322 150.319 157.65 151.134 157.16 152.058C156.671 152.982 156.373 153.995 156.286 155.037C156.199 156.08 156.324 157.128 156.653 158.121C154.935 159.308 153.53 160.895 152.56 162.744C151.59 164.594 151.083 166.652 151.083 168.74C151.083 170.829 151.59 172.886 152.56 174.736C153.53 176.586 154.935 178.172 156.653 179.36C156.129 180.864 156.129 182.501 156.653 184.005C155.356 184.91 154.234 186.043 153.342 187.349C152.862 185.61 151.789 184.094 150.309 183.064C148.829 182.035 147.034 181.556 145.238 181.711C143.441 181.866 141.755 182.646 140.474 183.914C139.192 185.183 138.395 186.861 138.221 188.656C137.183 188.047 136.062 187.595 134.893 187.311C136.99 185.927 138.641 183.965 139.647 181.663C145.98 181.56 151.083 176.982 151.083 171.329C151.083 165.61 145.868 160.975 139.435 160.975C138.026 160.981 136.628 161.219 135.296 161.68C135.057 160.662 134.614 159.703 133.994 158.861C133.375 158.018 132.591 157.311 131.69 156.78C130.789 156.249 129.789 155.906 128.752 155.772C127.715 155.638 126.662 155.716 125.656 156C124.649 156.285 123.711 156.77 122.898 157.427C122.084 158.084 121.412 158.899 120.923 159.823C120.433 160.747 120.135 161.761 120.048 162.803C119.961 163.845 120.086 164.894 120.415 165.886C120.249 166.002 120.1 166.137 119.939 166.26C119.535 166.223 119.143 166.152 118.728 166.152C117.319 166.158 115.92 166.396 114.589 166.857C114.54 166.661 114.459 166.48 114.396 166.291C114.647 165.139 114.627 163.944 114.338 162.801C114.049 161.657 113.498 160.597 112.73 159.702C111.962 158.807 110.997 158.102 109.911 157.643C108.824 157.185 107.647 156.984 106.47 157.057C105.796 155.18 104.697 153.484 103.258 152.103C101.82 150.721 100.082 149.691 98.1795 149.092C96.277 148.494 94.262 148.344 92.2919 148.654C90.3218 148.964 88.4501 149.725 86.8231 150.878C85.1961 152.032 83.858 153.546 82.9134 155.302C81.9688 157.059 81.4433 159.01 81.378 161.003C81.3127 162.996 81.7094 164.978 82.537 166.792C83.3646 168.607 84.6007 170.205 86.1487 171.462C85.2581 171.565 84.3801 171.756 83.5277 172.033C83.2217 170.771 82.6013 169.607 81.7242 168.65C80.8472 167.692 79.7421 166.972 78.5118 166.556C77.2815 166.141 75.966 166.043 74.6879 166.273C73.4099 166.503 72.2107 167.052 71.2021 167.87C70.0486 166.5 68.6053 165.403 66.9765 164.658C65.3476 163.914 63.5738 163.54 61.7829 163.563C60.3738 163.57 58.9754 163.808 57.6436 164.268C57.4047 163.25 56.9619 162.291 56.3421 161.449C55.7223 160.607 54.9382 159.899 54.0373 159.368C53.1363 158.837 52.1372 158.495 51.1001 158.361C50.0631 158.227 49.0096 158.304 48.0034 158.589C46.9971 158.873 46.059 159.359 45.2455 160.016C44.432 160.673 43.7601 161.488 43.2704 162.412C42.7806 163.336 42.4832 164.349 42.396 165.391C42.3087 166.433 42.4336 167.482 42.7629 168.474C41.045 169.662 39.6407 171.249 38.6706 173.098C37.7005 174.948 37.1935 177.005 37.193 179.094C37.193 179.134 37.2046 179.171 37.2049 179.211C35.3695 178.933 33.4933 179.135 31.7595 179.799C31.5205 178.781 31.0778 177.822 30.458 176.979C29.8381 176.137 29.0541 175.429 28.1532 174.899C27.2522 174.368 26.2531 174.025 25.216 173.891C24.179 173.757 23.1255 173.835 22.1193 174.119C21.1131 174.404 20.1749 174.889 19.3615 175.546C18.548 176.203 17.8761 177.018 17.3864 177.942C16.8966 178.866 16.5991 179.88 16.5119 180.922C16.4247 181.964 16.5495 183.013 16.8788 184.005C14.3825 185.695 12.5575 188.206 11.7212 191.102C10.8849 193.999 11.0902 197.096 12.3014 199.857C13.5125 202.617 15.653 204.866 18.3505 206.212C21.0479 207.557 24.1318 207.915 27.0656 207.222C27.5328 209.923 28.8482 212.404 30.8209 214.307C32.7936 216.209 35.3211 217.434 38.0368 217.803C40.7524 218.172 43.515 217.666 45.9238 216.359C48.3325 215.051 50.2622 213.011 51.4329 210.533C52.4931 212.776 54.1778 214.666 56.2849 215.976C58.392 217.286 60.8322 217.96 63.313 217.918C65.7937 217.876 68.2098 217.12 70.2714 215.739C72.3331 214.359 73.953 212.414 74.9368 210.136C76.462 210.114 77.9712 209.822 79.3942 209.273C80.2497 211.725 81.8256 213.861 83.9154 215.402C86.0052 216.944 88.5117 217.818 91.1069 217.912C93.702 218.005 96.2648 217.313 98.4599 215.925C100.655 214.538 102.38 212.52 103.409 210.136C105.297 210.098 107.151 209.639 108.838 208.792C110.019 210.88 111.76 212.596 113.864 213.748C115.967 214.9 118.351 215.442 120.746 215.313C123.141 215.183 125.452 214.388 127.42 213.016C129.387 211.644 130.933 209.75 131.882 207.547C132.576 207.53 133.268 207.458 133.951 207.331C134.92 209.68 136.559 211.691 138.664 213.114C140.769 214.537 143.246 215.308 145.787 215.331C148.328 215.354 150.819 214.628 152.949 213.244C155.08 211.86 156.755 209.878 157.766 207.547C158.783 207.519 159.792 207.37 160.774 207.104C163.375 207.829 166.14 207.7 168.663 206.737C171.186 205.773 173.333 204.026 174.789 201.752C173.975 204.904 174.38 208.246 175.923 211.113C177.465 213.979 180.031 216.159 183.11 217.217C186.188 218.276 189.552 218.134 192.531 216.822C195.51 215.509 197.884 213.122 199.181 210.136C201.068 210.098 202.923 209.639 204.61 208.792C205.791 210.88 207.531 212.596 209.635 213.748C211.739 214.9 214.122 215.442 216.517 215.313C218.912 215.183 221.224 214.388 223.191 213.016C225.158 211.644 226.704 209.75 227.653 207.547C229.54 207.51 231.395 207.051 233.082 206.204C233.992 207.826 235.245 209.23 236.753 210.319C238.261 211.408 239.988 212.155 241.814 212.509C243.64 212.863 245.521 212.815 247.326 212.368C249.132 211.922 250.818 211.087 252.269 209.923C252.718 212.399 253.883 214.689 255.618 216.511C257.354 218.333 259.586 219.607 262.037 220.175C264.489 220.744 267.053 220.582 269.414 219.71C271.774 218.838 273.828 217.294 275.321 215.269C276.875 216.459 278.679 217.279 280.598 217.666C282.516 218.053 284.498 217.997 286.392 217.502C288.285 217.007 290.04 216.086 291.524 214.809C293.007 213.533 294.18 211.934 294.952 210.136C301.285 210.033 306.388 205.455 306.388 199.801C306.388 194.083 301.173 189.447 294.74 189.447ZM63.3925 184.105C63.3789 184.168 63.3694 184.232 63.3566 184.295C63.2622 184.291 63.1726 184.271 63.0772 184.271C62.6904 184.28 62.3048 184.319 61.9239 184.387C61.9449 184.34 61.9744 184.299 61.9948 184.252C62.463 184.228 62.9296 184.18 63.3925 184.105V184.105ZM171.534 179.799C171.496 179.648 171.431 179.509 171.385 179.362C173.361 177.992 174.919 176.101 175.885 173.898C177.587 173.889 179.268 173.521 180.819 172.819C182.369 172.117 183.755 171.096 184.884 169.823C184.785 170.319 184.734 170.823 184.732 171.329C184.743 172.119 184.876 172.902 185.125 173.651C182.903 175.201 181.221 177.406 180.314 179.959C177.499 178.863 174.386 178.807 171.534 179.799V179.799ZM249.057 180.764C249.052 180.605 249.072 180.442 249.062 180.284C249.391 180.283 249.721 180.26 250.048 180.217C250.55 181.892 251.389 183.446 252.514 184.785C252.269 184.853 252.012 184.895 251.774 184.975C251.356 183.311 250.401 181.831 249.057 180.764V180.764Z" fill="#F9A825"/>
<path id="Vector_3" d="M27.029 204.978C23.3575 204.978 19.7244 205.725 16.3515 207.176C12.9786 208.626 9.93654 210.748 7.41099 213.413C4.88545 216.078 2.92937 219.23 1.66212 222.675C0.394877 226.121 -0.156964 229.789 0.0402817 233.456L17.5677 474.476C17.9372 481.384 20.9419 487.887 25.9628 492.646C30.9837 497.405 37.6385 500.057 44.5564 500.057H270.552C277.47 500.057 284.124 497.405 289.145 492.646C294.166 487.887 297.171 481.384 297.54 474.476L315.068 233.456C315.265 229.789 314.713 226.121 313.446 222.675C312.179 219.23 310.223 216.078 307.697 213.413C305.172 210.748 302.13 208.626 298.757 207.176C295.384 205.725 291.751 204.978 288.079 204.978H27.029Z" fill="#3F3D56"/>
<path id="Vector_4" d="M55.3119 204.978H39.7815V500.057H55.3119V204.978Z" fill="#6C63FF"/>
<path id="Vector_5" d="M99.3149 204.978H83.7844V500.057H99.3149V204.978Z" fill="#6C63FF"/>
<path id="Vector_6" d="M143.318 204.978H127.787V500.057H143.318V204.978Z" fill="#6C63FF"/>
<path id="Vector_7" d="M187.321 204.978H171.79V500.057H187.321V204.978Z" fill="#6C63FF"/>
<path id="Vector_8" d="M231.324 204.978H215.793V500.057H231.324V204.978Z" fill="#6C63FF"/>
<path id="Vector_9" d="M275.327 204.978H259.796V500.057H275.327V204.978Z" fill="#6C63FF"/>
<path id="2572ddba-42e8-4159-9036-35cbff74dfb7" d="M528.702 84.0066L521.932 67.5166L431.662 104.577C429.619 105.417 427.871 106.846 426.64 108.681C425.41 110.517 424.753 112.677 424.752 114.887V212.417H442.582V119.387L528.702 84.0066Z" fill="#3F3D56"/>
<g id="Group">
<path id="Vector_10" d="M517.102 49.5966H497.662V111.167H517.102V49.5966Z" fill="#6C63FF"/>
<path id="Vector_11" d="M486.322 62.5566H466.882V124.127H486.322V62.5566Z" fill="#6C63FF"/>
<path id="Vector_12" d="M456.342 115.217L442.572 119.267L436.902 53.647H456.342V115.217Z" fill="#6C63FF"/>
<path id="Vector_13" d="M467.682 122.507H406.112V141.947H467.682V122.507Z" fill="#6C63FF"/>
<path id="Vector_14" d="M467.692 149.247H406.122V168.687H467.692V149.247Z" fill="#6C63FF"/>
<path id="Vector_15" d="M467.682 175.987H406.112V195.427H467.682V175.987Z" fill="#6C63FF"/>
</g>
<path id="Vector_16" d="M497.662 500.057H378.572L349.402 208.387H523.592L497.662 500.057Z" fill="#3F3D56"/>
<path id="Vector_17" d="M536.552 203.527H337.252V222.967H536.552V203.527Z" fill="#3F3D56"/>
<path id="Vector_18" d="M689.128 183.14C726.12 183.14 756.108 153.153 756.108 116.16C756.108 79.1685 726.12 49.1805 689.128 49.1805C652.136 49.1805 622.148 79.1685 622.148 116.16C622.148 153.153 652.136 183.14 689.128 183.14Z" fill="#3AD29F"/>
<path id="Vector_19" d="M733.477 116.16L666.437 149.1V116.16V83.2203L733.477 116.16Z" fill="url(#paint0_linear)"/>
<path id="Vector_20" d="M729.447 116.16L670.457 145.15V116.16V87.1703L729.447 116.16Z" fill="white"/>
<path id="Vector_21" opacity="0.2" d="M627.628 123.851C627.639 110.066 631.901 96.6203 639.833 85.3469C647.766 74.0736 658.983 65.5214 671.954 60.8564C684.925 56.1915 699.019 55.641 712.315 59.28C725.61 62.9189 737.46 70.5702 746.248 81.1905C741.461 73.3179 735.102 66.5172 727.567 61.2135C720.033 55.9098 711.486 52.217 702.46 50.366C693.434 48.515 684.124 48.5455 675.11 50.4556C666.097 52.3657 657.574 56.1144 650.075 61.4673C642.575 66.8203 636.261 73.6625 631.526 81.5663C626.79 89.4701 623.736 98.2656 622.554 107.403C621.372 116.541 622.087 125.824 624.655 134.673C627.222 143.521 631.588 151.745 637.478 158.831C631.018 148.308 627.608 136.198 627.628 123.851V123.851Z" fill="white"/>
<path id="Vector_22" d="M727.647 213C726.945 213.001 726.273 213.288 725.777 213.8C725.281 214.311 725.001 215.005 725 215.728V289.272C725.001 289.995 725.281 290.689 725.777 291.2C726.273 291.712 726.945 291.999 727.647 292H850.353C851.055 291.999 851.727 291.712 852.223 291.2C852.719 290.689 852.999 289.995 853 289.272V215.728C852.999 215.005 852.719 214.311 852.223 213.8C851.727 213.288 851.055 213.001 850.353 213H727.647Z" fill="#3F3D56"/>
<path id="Vector_23" d="M741.923 220C740.618 220.002 739.366 220.538 738.444 221.491C737.521 222.444 737.002 223.736 737 225.084V280.916C737.002 282.264 737.521 283.556 738.444 284.509C739.366 285.462 740.618 285.998 741.923 286H837.077C838.382 285.998 839.634 285.462 840.556 284.509C841.479 283.556 841.998 282.264 842 280.916V225.084C841.998 223.736 841.479 222.444 840.556 221.491C839.634 220.538 838.382 220.002 837.077 220L741.923 220Z" fill="#FF6584"/>
<path id="Vector_24" d="M729 237H666V253H729V237Z" fill="#3F3D56"/>
<path id="Vector_25" d="M554.644 213C553.943 213.001 553.271 213.289 552.776 213.8C552.28 214.312 552.001 215.005 552 215.728V289.272C552.001 289.995 552.28 290.688 552.776 291.2C553.271 291.711 553.943 291.999 554.644 292H677.356C678.057 291.999 678.729 291.711 679.224 291.2C679.72 290.688 679.999 289.995 680 289.272V215.728C679.999 215.005 679.72 214.312 679.224 213.8C678.729 213.289 678.057 213.001 677.356 213H554.644Z" fill="#3F3D56"/>
<path id="Vector_26" d="M567.925 220C566.62 220.001 565.368 220.537 564.444 221.49C563.521 222.443 563.002 223.736 563 225.084V280.916C563.002 282.264 563.521 283.557 564.444 284.51C565.368 285.463 566.62 285.999 567.925 286H663.075C664.38 285.999 665.632 285.463 666.556 284.51C667.479 283.557 667.998 282.264 668 280.916V225.084C667.998 223.736 667.479 222.443 666.556 221.49C665.632 220.537 664.38 220.001 663.075 220L567.925 220Z" fill="#6C63FF"/>
<path id="MOVIES" d="M102.271 121.88C97.6625 121.88 94.3345 120.813 92.2865 118.68C90.2812 116.504 89.2785 112.984 89.2785 108.12V85.464L75.2625 119H73.1505L55.9985 84.184V119H52.7985V76.76H60.6065L76.0945 108.184L89.2145 76.76H97.5985V108.12C97.5985 112.131 97.9398 115.075 98.6225 116.952C99.3052 118.829 100.521 119.939 102.271 120.28V121.88ZM126.613 120.28C122.474 120.28 118.784 119.299 115.541 117.336C112.341 115.373 109.866 112.685 108.117 109.272C106.368 105.859 105.493 102.061 105.493 97.88C105.493 93.6987 106.368 89.9013 108.117 86.488C109.866 83.0747 112.341 80.3867 115.541 78.424C118.784 76.4613 122.474 75.48 126.613 75.48C130.752 75.48 134.421 76.4613 137.621 78.424C140.821 80.3867 143.296 83.0747 145.045 86.488C146.794 89.9013 147.669 93.6987 147.669 97.88C147.669 102.061 146.794 105.859 145.045 109.272C143.296 112.685 140.821 115.373 137.621 117.336C134.421 119.299 130.752 120.28 126.613 120.28ZM126.613 117.4C130.496 117.4 133.504 115.715 135.637 112.344C137.77 108.931 138.837 104.109 138.837 97.88C138.837 91.6507 137.77 86.8507 135.637 83.48C133.504 80.0667 130.496 78.36 126.613 78.36C122.73 78.36 119.722 80.0667 117.589 83.48C115.498 86.8507 114.453 91.6507 114.453 97.88C114.453 104.109 115.498 108.931 117.589 112.344C119.722 115.715 122.73 117.4 126.613 117.4ZM153.224 84.248C152.243 81.9013 151.261 80.2373 150.28 79.256C149.341 78.2747 148.211 77.6987 146.888 77.528V76.248L149.576 76.12C152.392 76.12 154.867 76.6533 157 77.72C159.133 78.7867 160.883 80.9627 162.248 84.248L172.36 108.184L185.864 76.76H189.128L170.696 119.64H168.136L153.224 84.248ZM200.066 119C198.53 119 197.357 118.765 196.546 118.296C195.735 117.784 195.159 116.952 194.818 115.8C194.477 114.605 194.306 112.899 194.306 110.68V76.76H202.626V110.68C202.626 112.856 202.925 114.477 203.522 115.544C204.119 116.568 205.314 117.08 207.106 117.08H207.746V119H200.066ZM214.768 85.08C214.768 82.904 214.469 81.304 213.872 80.28C213.274 79.2133 212.08 78.68 210.288 78.68H209.648V76.76H237.872C241.498 76.76 243.312 78.4667 243.312 81.88V87.32H241.392C241.392 84.6747 240.709 82.7333 239.344 81.496C238.021 80.2587 236.037 79.64 233.392 79.64H223.088V95.64H239.728V98.52H223.088V116.12H234.032C236.464 116.12 238.49 115.587 240.112 114.52C241.733 113.411 243.077 111.512 244.144 108.824L245.872 109.464L244.016 114.52C243.461 116.056 242.8 117.187 242.032 117.912C241.264 118.637 240.069 119 238.448 119H214.768V85.08ZM264.535 120.088C262.145 120.088 259.841 119.768 257.623 119.128C255.404 118.531 253.591 117.656 252.183 116.504C250.775 115.309 250.071 113.944 250.071 112.408V104.92H251.863C252.503 109.272 253.847 112.408 255.895 114.328C257.943 116.248 260.801 117.208 264.471 117.208C266.945 117.208 268.908 116.675 270.359 115.608C271.809 114.541 272.535 113.005 272.535 111C272.535 109.293 272.001 107.843 270.935 106.648C269.868 105.453 268.204 104.152 265.943 102.744L258.071 98.008C255.212 96.344 253.164 94.616 251.927 92.824C250.732 91.032 250.135 88.9413 250.135 86.552C250.135 83.1813 251.415 80.5147 253.975 78.552C256.577 76.5893 260.076 75.608 264.471 75.608C266.86 75.608 269.164 75.928 271.383 76.568C273.601 77.1653 275.415 78.0613 276.823 79.256C278.231 80.408 278.935 81.752 278.935 83.288V90.776H277.143C276.417 86.424 275.073 83.288 273.111 81.368C271.148 79.448 268.503 78.488 265.175 78.488C262.871 78.488 261.036 79.0427 259.671 80.152C258.348 81.2613 257.687 82.776 257.687 84.696C257.687 86.36 258.199 87.7467 259.223 88.856C260.289 89.9227 261.996 91.1387 264.343 92.504L272.215 97.176C275.201 98.9253 277.335 100.632 278.615 102.296C279.937 103.917 280.599 105.88 280.599 108.184C280.599 111.896 279.191 114.819 276.375 116.952C273.601 119.043 269.655 120.088 264.535 120.088Z" fill="black"/>
<g id="undraw_video_files_fu10 1">
<path id="Vector_27" d="M827 438.101C827.006 439.226 826.571 440.307 825.791 441.107C825.011 441.907 823.95 442.359 822.841 442.365H639.838C639.289 442.362 638.746 442.25 638.24 442.034C637.733 441.818 637.274 441.503 636.888 441.107C636.502 440.711 636.196 440.242 635.989 439.726C635.781 439.21 635.676 438.658 635.679 438.101V311.265C635.673 310.139 636.108 309.058 636.888 308.258C637.668 307.459 638.729 307.006 639.838 307H822.841C823.39 307.003 823.933 307.116 824.439 307.331C824.945 307.547 825.404 307.862 825.791 308.258C826.177 308.654 826.483 309.124 826.69 309.639C826.897 310.155 827.003 310.707 827 311.265V311.265V438.101Z" fill="#E6E6E6"/>
<path id="Vector_28" d="M824.841 436.024C824.841 437.117 824.413 438.166 823.651 438.939C822.889 439.713 821.855 440.147 820.777 440.147H642.027C640.949 440.147 639.915 439.713 639.153 438.939C638.391 438.166 637.963 437.117 637.963 436.024V313.4C637.963 312.306 638.391 311.257 639.153 310.484C639.915 309.711 640.949 309.276 642.027 309.276H820.785C821.862 309.278 822.893 309.714 823.654 310.487C824.414 311.26 824.841 312.308 824.841 313.4V436.024Z" fill="white"/>
<path id="c6fe725a-3b03-4a96-90af-cfbd2676500a" d="M647.516 314.6H815.478C816.118 314.6 816.732 314.858 817.184 315.317C817.637 315.776 817.891 316.398 817.891 317.048V431.9C817.891 432.549 817.637 433.172 817.184 433.631C816.732 434.09 816.118 434.348 815.478 434.348H647.516C646.877 434.348 646.263 434.09 645.811 433.631C645.358 433.172 645.104 432.549 645.104 431.9V317.048C645.104 316.398 645.358 315.776 645.811 315.317C646.263 314.858 646.877 314.6 647.516 314.6V314.6Z" fill="#E6E6E6"/>
<path id="Vector_29" d="M649.642 317.355H813.17C813.81 317.355 814.423 317.612 814.876 318.072C815.328 318.531 815.582 319.153 815.582 319.802V428.526C815.582 429.175 815.328 429.798 814.876 430.257C814.423 430.716 813.81 430.973 813.17 430.973H649.642C649.003 430.973 648.389 430.716 647.937 430.257C647.484 429.798 647.23 429.175 647.23 428.526V319.802C647.23 319.153 647.484 318.531 647.937 318.072C648.389 317.612 649.003 317.355 649.642 317.355V317.355Z" fill="white"/>
<path id="Vector_30" d="M765.104 392.883C764.46 392.882 763.824 392.745 763.236 392.479C763.099 392.417 762.969 392.342 762.847 392.254L750.962 383.766C750.359 383.336 749.867 382.764 749.528 382.101C749.188 381.437 749.011 380.7 749.011 379.952V368.376C749.011 367.628 749.188 366.891 749.528 366.227C749.867 365.564 750.359 364.992 750.962 364.562L762.847 356.074C762.969 355.986 763.099 355.911 763.236 355.849C763.936 355.533 764.703 355.4 765.467 355.461C766.23 355.523 766.967 355.777 767.609 356.2C768.252 356.624 768.78 357.203 769.145 357.887C769.511 358.57 769.702 359.335 769.702 360.112V388.216C769.702 389.453 769.218 390.64 768.355 391.515C767.493 392.39 766.323 392.881 765.104 392.881L765.104 392.883Z" fill="#3F3D56"/>
<path id="Vector_31" d="M738.506 395.159H705.36C698.597 395.153 693.117 390.718 693.11 385.245V363.084C693.117 357.61 698.597 353.175 705.36 353.169H738.593C745.307 353.176 750.748 357.579 750.756 363.014V385.245C750.749 390.718 745.269 395.153 738.506 395.159Z" fill="#3F3D56"/>
<path id="Vector_32" d="M797.551 423.982C802.996 423.982 807.409 419.504 807.409 413.979C807.409 408.455 802.996 403.977 797.551 403.977C792.107 403.977 787.693 408.455 787.693 413.979C787.693 419.504 792.107 423.982 797.551 423.982Z" fill="#E6E6E6"/>
<path id="Vector_33" d="M802.672 413.8L794.814 409.197C794.783 409.179 794.748 409.169 794.712 409.169C794.676 409.169 794.641 409.179 794.61 409.197C794.579 409.215 794.553 409.241 794.535 409.273C794.517 409.304 794.508 409.34 794.508 409.376V418.583C794.508 418.619 794.517 418.655 794.535 418.686C794.553 418.718 794.579 418.744 794.61 418.762C794.641 418.78 794.676 418.79 794.712 418.79C794.748 418.79 794.783 418.78 794.814 418.762L802.672 414.159C802.703 414.141 802.728 414.114 802.746 414.083C802.764 414.052 802.774 414.016 802.774 413.98C802.774 413.943 802.764 413.907 802.746 413.876C802.728 413.845 802.703 413.818 802.672 413.8L794.814 409.197C794.783 409.179 794.748 409.169 794.712 409.169C794.676 409.169 794.641 409.179 794.61 409.197C794.579 409.215 794.553 409.241 794.535 409.273C794.517 409.304 794.508 409.34 794.508 409.376V418.583C794.508 418.619 794.517 418.655 794.535 418.686C794.553 418.718 794.579 418.744 794.61 418.762C794.641 418.78 794.676 418.79 794.712 418.79C794.748 418.79 794.783 418.78 794.814 418.762L802.672 414.159C802.703 414.141 802.728 414.114 802.746 414.083C802.764 414.052 802.774 414.016 802.774 413.98C802.774 413.943 802.764 413.907 802.746 413.876C802.728 413.845 802.703 413.818 802.672 413.8V413.8Z" fill="white"/>
<path id="Vector_34" d="M784.752 453.312C784.758 454.437 784.323 455.518 783.543 456.318C782.763 457.118 781.701 457.57 780.593 457.576H597.59C597.041 457.573 596.498 457.461 595.991 457.245C595.485 457.029 595.026 456.714 594.64 456.318C594.253 455.922 593.948 455.453 593.74 454.937C593.533 454.421 593.428 453.869 593.43 453.312V326.476C593.425 325.351 593.86 324.269 594.64 323.469C595.42 322.67 596.481 322.217 597.59 322.211H780.592C781.141 322.214 781.685 322.327 782.191 322.543C782.697 322.758 783.156 323.073 783.543 323.469C783.929 323.865 784.234 324.335 784.442 324.85C784.649 325.366 784.755 325.919 784.752 326.476V326.476V453.312Z" fill="#E6E6E6"/>
<path id="Vector_35" d="M782.593 451.235C782.593 452.328 782.165 453.377 781.403 454.15C780.641 454.924 779.607 455.358 778.529 455.358H599.779C598.701 455.358 597.667 454.924 596.905 454.15C596.143 453.377 595.715 452.328 595.715 451.235V328.611C595.715 327.517 596.143 326.468 596.905 325.695C597.667 324.922 598.701 324.487 599.779 324.487H778.537C779.614 324.489 780.645 324.925 781.406 325.698C782.166 326.471 782.593 327.519 782.593 328.611V451.235Z" fill="white"/>
<path id="c6fe725a-3b03-4a96-90af-cfbd2676500a_2" d="M605.268 329.811H773.23C773.87 329.811 774.484 330.069 774.936 330.528C775.388 330.987 775.643 331.61 775.643 332.259V447.111C775.643 447.76 775.388 448.383 774.936 448.842C774.484 449.301 773.87 449.559 773.23 449.559H605.268C604.628 449.559 604.015 449.301 603.562 448.842C603.11 448.383 602.856 447.76 602.856 447.111V332.259C602.856 331.61 603.11 330.987 603.562 330.528C604.015 330.069 604.628 329.811 605.268 329.811Z" fill="#E6E6E6"/>
<path id="Vector_36" d="M607.394 332.566H770.922C771.561 332.566 772.175 332.824 772.627 333.283C773.08 333.742 773.334 334.364 773.334 335.013V443.737C773.334 444.386 773.08 445.009 772.627 445.468C772.175 445.927 771.561 446.185 770.922 446.185H607.394C606.754 446.185 606.141 445.927 605.688 445.468C605.236 445.009 604.982 444.386 604.982 443.737V335.013C604.982 334.364 605.236 333.742 605.688 333.283C606.141 332.824 606.754 332.566 607.394 332.566V332.566Z" fill="white"/>
<path id="Vector_37" d="M722.856 408.094C722.212 408.093 721.576 407.956 720.988 407.69C720.851 407.628 720.721 407.553 720.598 407.466L708.714 398.977C708.111 398.547 707.619 397.976 707.28 397.312C706.94 396.648 706.763 395.911 706.763 395.163V383.587C706.763 382.839 706.94 382.102 707.28 381.439C707.619 380.775 708.111 380.204 708.714 379.773L720.598 371.285C720.721 371.197 720.851 371.122 720.988 371.06C721.688 370.744 722.455 370.611 723.218 370.672C723.982 370.734 724.719 370.988 725.361 371.411C726.003 371.835 726.531 372.415 726.897 373.098C727.262 373.781 727.454 374.546 727.454 375.323V403.427C727.454 404.664 726.969 405.851 726.107 406.726C725.245 407.601 724.075 408.092 722.856 408.092L722.856 408.094Z" fill="#3F3D56"/>
<path id="Vector_38" d="M696.258 410.37H663.112C656.349 410.364 650.869 405.929 650.862 400.456V378.295C650.869 372.822 656.349 368.386 663.112 368.381H696.345C703.059 368.387 708.5 372.791 708.508 378.225V400.456C708.501 405.929 703.021 410.364 696.258 410.37Z" fill="#3F3D56"/>
<path id="Vector_39" d="M755.303 439.193C760.748 439.193 765.161 434.715 765.161 429.191C765.161 423.666 760.748 419.188 755.303 419.188C749.859 419.188 745.445 423.666 745.445 429.191C745.445 434.715 749.859 439.193 755.303 439.193Z" fill="#E6E6E6"/>
<path id="Vector_40" d="M760.424 429.011L752.566 424.408C752.535 424.39 752.499 424.38 752.464 424.38C752.428 424.38 752.393 424.39 752.362 424.408C752.331 424.426 752.305 424.452 752.287 424.484C752.269 424.515 752.26 424.551 752.26 424.587V433.794C752.26 433.83 752.269 433.866 752.287 433.897C752.305 433.929 752.331 433.955 752.362 433.973C752.393 433.991 752.428 434.001 752.464 434.001C752.499 434.001 752.535 433.991 752.566 433.973L760.424 429.37C760.455 429.352 760.48 429.326 760.498 429.294C760.516 429.263 760.526 429.227 760.526 429.191C760.526 429.154 760.516 429.119 760.498 429.087C760.48 429.056 760.455 429.03 760.424 429.011L752.566 424.408C752.535 424.39 752.499 424.38 752.464 424.38C752.428 424.38 752.393 424.39 752.362 424.408C752.331 424.426 752.305 424.452 752.287 424.484C752.269 424.515 752.26 424.551 752.26 424.587V433.794C752.26 433.83 752.269 433.866 752.287 433.897C752.305 433.929 752.331 433.955 752.362 433.973C752.393 433.991 752.428 434.001 752.464 434.001C752.499 434.001 752.535 433.991 752.566 433.973L760.424 429.37C760.455 429.352 760.48 429.326 760.498 429.294C760.516 429.263 760.526 429.227 760.526 429.191C760.526 429.154 760.516 429.119 760.498 429.087C760.48 429.056 760.455 429.03 760.424 429.011Z" fill="white"/>
<path id="Vector_41" d="M743.321 470.735C743.327 471.861 742.892 472.942 742.112 473.742C741.332 474.542 740.271 474.994 739.162 475H556.159C555.61 474.997 555.067 474.885 554.561 474.669C554.055 474.453 553.596 474.138 553.209 473.742C552.823 473.346 552.517 472.876 552.31 472.361C552.103 471.845 551.997 471.293 552 470.735V343.899C551.994 342.774 552.429 341.693 553.209 340.893C553.989 340.093 555.05 339.641 556.159 339.635H739.162C739.711 339.638 740.254 339.75 740.76 339.966C741.267 340.182 741.726 340.497 742.112 340.893C742.498 341.289 742.804 341.758 743.011 342.274C743.219 342.79 743.324 343.342 743.321 343.899V343.899V470.735Z" fill="#E6E6E6"/>
<path id="Vector_42" d="M741.163 468.658C741.163 469.752 740.735 470.801 739.972 471.574C739.21 472.347 738.177 472.782 737.099 472.782H558.348C557.27 472.782 556.237 472.347 555.475 471.574C554.712 470.801 554.284 469.752 554.284 468.658V346.035C554.284 344.941 554.712 343.892 555.475 343.119C556.237 342.345 557.27 341.911 558.348 341.911H737.107C738.183 341.913 739.215 342.349 739.975 343.122C740.736 343.895 741.163 344.942 741.163 346.035V468.658Z" fill="white"/>
<path id="c6fe725a-3b03-4a96-90af-cfbd2676500a_3" d="M563.838 347.235H731.8C732.44 347.235 733.053 347.493 733.506 347.952C733.958 348.411 734.212 349.033 734.212 349.682V464.535C734.212 465.184 733.958 465.806 733.506 466.265C733.053 466.724 732.44 466.982 731.8 466.982H563.838C563.198 466.982 562.584 466.724 562.132 466.265C561.68 465.806 561.425 465.184 561.425 464.535V349.682C561.425 349.033 561.68 348.411 562.132 347.952C562.584 347.493 563.198 347.235 563.838 347.235V347.235Z" fill="#E6E6E6"/>
<path id="Vector_43" d="M565.964 349.989H729.491C729.808 349.989 730.122 350.053 730.414 350.176C730.707 350.299 730.973 350.479 731.197 350.706C731.421 350.934 731.599 351.203 731.72 351.5C731.841 351.797 731.903 352.116 731.903 352.437V461.161C731.903 461.482 731.841 461.8 731.72 462.097C731.599 462.394 731.421 462.664 731.197 462.891C730.973 463.119 730.707 463.299 730.414 463.422C730.122 463.545 729.808 463.608 729.491 463.608H565.964C565.324 463.608 564.71 463.35 564.258 462.891C563.806 462.432 563.552 461.81 563.552 461.161V352.437C563.552 351.788 563.806 351.165 564.258 350.706C564.71 350.247 565.324 349.989 565.964 349.989V349.989Z" fill="white"/>
<path id="Vector_44" d="M681.425 425.518C680.782 425.517 680.145 425.38 679.557 425.114C679.421 425.052 679.29 424.977 679.168 424.889L667.284 416.401C666.681 415.97 666.189 415.399 665.849 414.735C665.51 414.072 665.332 413.335 665.332 412.587V401.011C665.332 400.263 665.51 399.526 665.849 398.862C666.189 398.198 666.681 397.627 667.284 397.197L679.168 388.708C679.29 388.621 679.421 388.546 679.557 388.484C680.257 388.168 681.024 388.035 681.788 388.096C682.552 388.157 683.288 388.411 683.931 388.835C684.573 389.258 685.101 389.838 685.466 390.521C685.832 391.205 686.023 391.97 686.023 392.747V420.851C686.023 422.088 685.539 423.275 684.677 424.15C683.814 425.025 682.645 425.516 681.425 425.516L681.425 425.518Z" fill="#6C63FF"/>
<path id="Vector_45" d="M654.828 427.793H621.681C614.919 427.788 609.439 423.352 609.432 417.879V395.718C609.439 390.245 614.919 385.81 621.681 385.804H654.914C661.629 385.811 667.07 390.214 667.078 395.648V417.879C667.071 423.352 661.59 427.788 654.828 427.793Z" fill="#6C63FF"/>
<path id="Vector_46" d="M713.873 456.617C719.317 456.617 723.731 452.139 723.731 446.614C723.731 441.09 719.317 436.612 713.873 436.612C708.428 436.612 704.015 441.09 704.015 446.614C704.015 452.139 708.428 456.617 713.873 456.617Z" fill="#3F3D56"/>
<path id="Vector_47" d="M718.993 446.435L711.135 441.832C711.104 441.814 711.069 441.804 711.033 441.804C710.997 441.804 710.962 441.814 710.931 441.832C710.9 441.85 710.874 441.876 710.856 441.907C710.839 441.939 710.829 441.975 710.829 442.011V451.218C710.829 451.254 710.839 451.29 710.856 451.321C710.874 451.353 710.9 451.379 710.931 451.397C710.962 451.415 710.997 451.425 711.033 451.425C711.069 451.425 711.104 451.415 711.135 451.397L718.993 446.794C719.024 446.775 719.05 446.749 719.068 446.718C719.086 446.686 719.095 446.651 719.095 446.614C719.095 446.578 719.086 446.542 719.068 446.511C719.05 446.479 719.024 446.453 718.993 446.435L711.135 441.832C711.104 441.814 711.069 441.804 711.033 441.804C710.997 441.804 710.962 441.814 710.931 441.832C710.9 441.85 710.874 441.876 710.856 441.907C710.839 441.939 710.829 441.975 710.829 442.011V451.218C710.829 451.254 710.839 451.29 710.856 451.321C710.874 451.353 710.9 451.379 710.931 451.397C710.962 451.415 710.997 451.425 711.033 451.425C711.069 451.425 711.104 451.415 711.135 451.397L718.993 446.794C719.024 446.775 719.05 446.749 719.068 446.718C719.086 446.686 719.095 446.651 719.095 446.614C719.095 446.578 719.086 446.542 719.068 446.511C719.05 446.479 719.024 446.453 718.993 446.435V446.435Z" fill="white"/>
</g>
</g>
<defs>
<linearGradient id="paint0_linear" x1="699.958" y1="149.101" x2="699.958" y2="83.2205" gradientUnits="userSpaceOnUse">
<stop stop-opacity="0.12"/>
<stop offset="0.55" stop-opacity="0.09"/>
<stop offset="1" stop-opacity="0.02"/>
</linearGradient>
<clipPath id="clip0">
<rect width="867.108" height="500.057" fill="white"/>
</clipPath>
</defs>
</svg>
